<?xml version="1.0" standalone="no"?>
<!DOCTYPE svg PUBLIC "-//W3C//DTD SVG 20010904//EN"
 "http://www.w3.org/TR/2001/REC-SVG-20010904/DTD/svg10.dtd">
<svg version="1.0" xmlns="http://www.w3.org/2000/svg"
 width="100.000000pt" height="100.000000pt" viewBox="0 0 100.000000 100.000000"
 preserveAspectRatio="xMidYMid meet">
<metadata>
Created by potrace 1.11, written by Peter Selinger 2001-2013
</metadata>
<g transform="translate(0.000000,100.000000) scale(0.100000,-0.100000)"
fill="#000000" stroke="none">
<path d="M693 953 c-7 -3 -13 -12 -13 -21 0 -9 -7 -25 -14 -35 -13 -16 -34
-18 -232 -19 -244 -1 -266 -5 -289 -63 -21 -49 -5 -104 37 -126 12 -6 69 -13
126 -14 120 -3 134 -11 137 -77 3 -52 -6 -59 -54 -46 -63 18 -183 13 -232 -9
-87 -39 -143 -126 -142 -218 2 -98 50 -167 154 -219 110 -55 191 -47 297 29
37 26 45 25 112 -17 146 -93 323 -41 374 109 20 59 20 97 0 156 -21 63 -71
112 -152 150 -63 29 -74 31 -187 32 l-120 1 -3 44 c-4 56 -33 96 -75 106 -17
4 -68 6 -112 6 -89 -2 -125 13 -125 52 0 12 8 30 18 39 16 15 48 17 233 17
240 0 253 3 283 63 16 33 16 41 5 52 -8 7 -20 11 -26 8z"/>
</g>
</svg>
